<?xml version="1.0" standalone="no"?>
<!DOCTYPE svg PUBLIC "-//W3C//DTD SVG 20010904//EN"
 "http://www.w3.org/TR/2001/REC-SVG-20010904/DTD/svg10.dtd">
<svg version="1.0" xmlns="http://www.w3.org/2000/svg"
 width="1750.000000pt" height="1750.000000pt" viewBox="0 0 1750.000000 1750.000000"
 preserveAspectRatio="xMidYMid meet">
<metadata>
Created by potrace 1.11, written by Peter Selinger 2001-2013
</metadata>
<g transform="translate(0.000000,1750.000000) scale(0.100000,-0.100000)"
fill="#000000" stroke="none">
<path d="M4407 12624 c-3 -4 -68 -8 -143 -11 -155 -4 -203 -16 -348 -89 -49
-24 -95 -44 -102 -44 -7 0 -14 -3 -16 -8 -1 -4 -42 -34 -90 -67 -49 -32 -88
-63 -88 -67 0 -5 -4 -7 -9 -3 -6 3 -13 -1 -18 -8 -4 -7 -24 -24 -43 -37 -19
-13 -37 -27 -40 -30 -3 -3 -30 -25 -60 -50 -30 -24 -70 -60 -89 -80 -19 -19
-37 -35 -40 -35 -3 0 -5 -3 -4 -7 2 -5 -3 -8 -10 -8 -16 0 -277 -267 -277
-283 0 -6 -19 -29 -42 -50 l-43 -38 41 31 c22 17 58 52 80 78 50 60 210 222
219 222 3 0 19 12 35 28 102 97 130 122 170 153 25 19 47 37 50 41 7 9 185
135 209 148 11 5 26 16 33 24 14 13 170 91 242 120 51 21 96 29 96 17 0 -5
-24 -44 -52 -86 -78 -113 -158 -246 -158 -261 0 -7 -5 -16 -10 -19 -6 -4 -8
-11 -5 -16 4 -5 2 -9 -3 -9 -5 0 -17 -18 -27 -40 -10 -22 -22 -40 -26 -40 -5
0 -6 -7 -3 -15 4 -8 2 -15 -3 -15 -5 0 -29 -39 -53 -87 -25 -49 -47 -90 -50
-93 -7 -7 -42 -84 -40 -89 1 -2 -4 -7 -12 -12 -13 -8 -14 -12 -17 -45 0 -8 -5
-12 -11 -9 -5 3 -10 -1 -10 -9 0 -8 -13 -38 -30 -66 -16 -27 -27 -50 -24 -50
4 0 1 -7 -6 -15 -7 -9 -30 -48 -50 -88 -20 -40 -49 -97 -65 -127 -16 -30 -28
-58 -27 -62 1 -5 -3 -8 -8 -8 -6 0 -10 -7 -10 -15 0 -8 -5 -15 -12 -15 -6 0
-9 -3 -5 -6 7 -7 -42 -105 -57 -116 -6 -4 -8 -8 -3 -8 4 0 -4 -18 -18 -40 -14
-22 -22 -40 -19 -40 4 0 1 -8 -7 -17 -8 -10 -23 -36 -34 -58 -11 -22 -22 -42
-25 -45 -3 -3 -16 -27 -30 -55 -13 -27 -35 -67 -47 -87 -13 -21 -21 -38 -17
-38 3 0 -4 -12 -15 -26 -12 -15 -21 -33 -21 -41 0 -7 -7 -16 -15 -19 -8 -4
-12 -10 -9 -15 3 -5 0 -9 -6 -9 -6 0 -9 -4 -6 -9 3 -5 -1 -14 -9 -21 -8 -7
-12 -16 -9 -21 3 -5 1 -9 -5 -9 -6 0 -13 -11 -17 -25 -3 -14 -9 -25 -14 -25
-4 0 -15 -18 -25 -40 -10 -22 -22 -40 -26 -40 -5 0 -11 -11 -15 -25 -3 -14
-10 -25 -15 -25 -5 0 -9 -4 -9 -10 0 -17 -47 -79 -55 -72 -5 4 -5 2 -2 -4 6
-11 -18 -46 -60 -89 -12 -13 -19 -26 -16 -29 4 -3 -1 -6 -9 -6 -9 0 -18 -6
-21 -14 -4 -11 5 -10 51 3 31 10 59 18 62 18 3 1 25 6 50 13 25 7 56 14 69 17
13 2 32 8 41 13 10 5 20 7 23 4 3 -3 15 -1 26 6 12 6 34 13 49 15 15 3 47 9
72 16 105 25 177 41 192 40 4 0 25 6 47 14 22 7 42 11 45 8 3 -3 12 -1 19 5 8
7 16 10 19 7 2 -3 39 2 82 10 43 8 94 17 114 20 20 3 48 7 62 9 29 6 112 17
155 21 17 1 71 6 120 11 163 15 566 9 725 -11 19 -2 55 -6 80 -9 25 -3 56 -7
70 -10 14 -3 47 -7 75 -11 27 -3 57 -7 65 -9 8 -3 33 -8 55 -11 65 -11 77 -13
150 -30 39 -9 79 -18 90 -20 23 -5 45 -11 97 -24 20 -5 39 -6 42 -3 4 3 6 1 6
-5 0 -5 6 -10 13 -10 6 0 32 -5 56 -11 25 -6 49 -8 55 -5 5 3 6 1 2 -5 -4 -7
-1 -12 6 -13 26 -1 63 -10 107 -25 25 -9 53 -17 61 -19 8 -2 49 -15 90 -30 41
-15 80 -28 85 -29 6 -1 21 -8 35 -16 14 -7 25 -12 25 -11 0 2 23 -4 53 -16 9
-3 19 -7 22 -8 5 -2 16 -6 105 -42 69 -28 87 -37 208 -92 49 -23 91 -41 94
-41 3 0 32 -13 64 -30 33 -16 59 -27 59 -23 0 4 7 -2 15 -13 8 -10 15 -16 15
-12 0 4 40 -13 89 -37 48 -25 93 -45 100 -45 6 0 11 -4 11 -9 0 -7 36 -22 43
-18 1 1 16 -7 32 -19 17 -12 69 -40 118 -63 48 -23 87 -47 87 -52 0 -19 -16
-13 -185 66 -63 30 -142 65 -155 70 -3 1 -21 9 -40 17 -19 9 -39 14 -44 11 -5
-4 -6 -1 -2 5 5 8 0 12 -13 12 -11 0 -22 4 -25 9 -3 5 -22 12 -41 15 -19 4
-35 11 -35 17 0 6 -4 8 -8 5 -5 -3 -20 1 -34 8 -34 18 -101 41 -110 38 -5 -1
-8 3 -8 8 0 5 -3 9 -7 9 -5 -1 -11 0 -15 1 -5 1 -11 3 -15 5 -5 1 -21 7 -37
14 -16 6 -38 13 -50 16 -11 2 -22 4 -23 6 -2 1 -6 2 -10 3 -5 1 -13 4 -19 8
-6 4 -22 9 -36 12 -15 2 -36 9 -47 16 -12 6 -21 8 -21 4 0 -3 -7 -1 -15 6 -9
7 -18 10 -22 7 -3 -4 -12 -2 -19 3 -6 6 -20 12 -30 14 -11 2 -55 14 -99 26
-44 12 -87 23 -95 25 -8 2 -35 8 -60 14 -89 22 -129 32 -150 35 -14 2 -42 9
-100 22 -25 6 -66 13 -105 18 -11 1 -29 6 -40 9 -11 4 -38 9 -60 12 -22 4 -49
8 -60 10 -29 6 -84 15 -125 21 -19 2 -46 7 -60 10 -14 3 -37 7 -52 7 -16 1
-28 4 -28 7 0 3 -12 5 -27 4 -16 -1 -32 1 -38 4 -5 3 -16 7 -25 8 -25 3 -100
14 -129 18 -62 11 -176 25 -261 33 -97 9 -552 9 -650 0 -121 -11 -132 -13
-285 -33 -11 -1 -22 -3 -25 -4 -3 -1 -9 -2 -14 -1 -5 1 -32 -3 -60 -8 -61 -12
-99 -19 -146 -27 -19 -3 -44 -8 -55 -11 -11 -3 -29 -7 -40 -9 -28 -4 -63 -12
-87 -20 -11 -3 -30 -7 -41 -9 -12 -2 -33 -6 -47 -9 -14 -4 -38 -9 -54 -11 -16
-3 -37 -10 -47 -16 -11 -5 -19 -8 -19 -5 0 3 -15 0 -32 -5 -18 -6 -41 -12 -51
-14 -10 -2 -27 -7 -37 -10 -10 -3 -27 -8 -38 -10 -36 -7 -107 -27 -122 -35
-19 -9 -82 -24 -92 -22 -5 1 -8 -2 -8 -7 0 -5 -8 -8 -17 -6 -10 1 -22 -1 -28
-5 -14 -10 -158 -55 -167 -52 -5 1 -8 -2 -8 -6 0 -4 -10 -8 -22 -9 -11 -1 -24
-6 -27 -10 -3 -4 -15 -8 -26 -8 -23 1 -22 24 1 60 8 12 11 25 7 30 -5 4 -3 5
4 1 7 -4 14 3 19 16 4 13 19 41 33 63 39 60 50 83 43 89 -3 3 -1 6 5 6 6 0 16
14 23 30 7 17 17 30 22 30 5 0 7 4 4 8 -3 5 3 20 12 33 25 36 52 82 58 102 4
9 11 17 16 17 5 0 7 4 4 8 -3 5 6 25 20 45 14 20 21 37 17 37 -4 0 -1 6 7 13
14 12 57 86 89 155 8 17 19 32 23 32 4 0 8 9 8 20 0 11 7 23 15 26 8 4 12 10
9 15 -3 5 0 9 5 9 6 0 10 3 9 8 -2 7 21 51 49 97 7 11 15 27 19 35 4 8 16 27
26 43 11 15 16 27 12 27 -4 0 1 9 11 20 10 11 14 20 9 20 -5 0 -4 4 1 8 11 8
19 21 61 103 15 30 33 57 38 61 6 4 7 8 2 8 -5 0 -3 7 4 15 7 8 9 15 6 15 -4
0 2 10 13 22 11 11 18 25 15 30 -3 4 0 8 5 8 6 0 11 5 11 11 0 6 15 37 34 68
19 32 37 69 41 82 4 13 10 26 14 29 3 3 24 41 46 85 22 44 43 82 48 83 4 2 5
8 1 13 -3 5 0 9 5 9 6 0 10 3 9 8 -2 11 13 44 36 77 12 17 19 30 18 30 -7 0
93 200 103 207 5 4 7 8 3 8 -4 0 14 42 39 93 25 50 49 103 54 117 9 23 8 23
-18 -6 -68 -75 -98 -113 -141 -173 -24 -36 -53 -73 -63 -84 -10 -11 -25 -35
-34 -54 -9 -19 -25 -43 -36 -54 -10 -10 -16 -19 -12 -19 3 0 -1 -8 -9 -17 -27
-31 -108 -153 -108 -163 0 -6 -5 -10 -11 -10 -5 0 -8 -4 -5 -9 3 -5 -1 -11 -9
-15 -8 -3 -15 -12 -15 -21 0 -8 -4 -15 -10 -15 -5 0 -10 -6 -10 -13 0 -8 -9
-22 -20 -32 -11 -10 -17 -22 -14 -26 3 -5 -2 -12 -10 -15 -9 -3 -16 -10 -16
-16 0 -5 -13 -28 -29 -51 -16 -23 -29 -46 -29 -51 0 -5 -4 -12 -9 -15 -5 -3
-20 -24 -33 -46 -13 -22 -26 -42 -30 -45 -3 -3 -14 -22 -25 -42 -11 -21 -23
-38 -27 -38 -5 0 -8 -5 -8 -11 0 -6 -13 -30 -30 -54 -16 -24 -30 -48 -30 -53
0 -6 -4 -12 -8 -14 -4 -1 -34 -46 -67 -98 -96 -154 -103 -164 -119 -182 -9
-10 -14 -18 -11 -18 3 0 -8 -20 -24 -44 -17 -24 -27 -46 -24 -50 4 -3 2 -6 -3
-6 -6 0 -23 -22 -39 -50 -17 -27 -34 -50 -38 -50 -5 0 -5 -4 -2 -10 3 -5 1
-10 -4 -10 -6 0 -11 -4 -11 -9 0 -8 -72 -125 -97 -157 -4 -5 -14 -20 -20 -32
-32 -55 -39 -66 -51 -81 -23 -28 -142 -214 -142 -222 0 -4 -8 -13 -17 -18 -10
-6 -13 -11 -8 -11 7 0 7 -3 0 -8 -15 -11 -55 -70 -55 -82 0 -5 -4 -10 -8 -10
-5 0 -15 -12 -23 -27 -15 -30 -34 -55 -61 -85 -10 -10 -18 -22 -18 -26 0 -5
-9 -20 -21 -33 -12 -13 -34 -43 -51 -66 -16 -24 -34 -43 -39 -43 -6 0 -8 -4
-5 -9 3 -5 -1 -11 -9 -15 -8 -3 -15 -12 -15 -21 0 -8 -6 -15 -14 -15 -8 0 -17
-7 -20 -16 -9 -24 -7 -28 9 -14 8 7 15 10 15 6 0 -3 17 1 38 10 20 8 44 17 52
19 8 2 38 12 65 23 28 11 53 20 58 21 4 0 8 1 10 2 1 0 9 2 17 4 8 2 34 10 58
19 23 8 42 13 42 9 0 -3 7 0 15 7 8 7 15 9 15 5 0 -4 6 -3 13 3 10 9 83 31
149 47 9 2 26 9 37 15 12 6 21 9 21 6 0 -3 15 1 34 9 18 8 48 17 66 20 18 3
41 10 51 16 11 5 19 8 19 5 0 -2 44 9 98 25 53 17 105 32 115 34 10 2 27 7 37
10 10 3 27 7 37 9 10 2 38 9 63 16 25 7 52 13 60 15 8 2 35 8 60 14 59 15 76
19 135 31 28 6 61 13 75 16 14 3 36 7 50 10 14 3 34 8 45 11 11 3 34 8 50 10
43 5 65 9 105 17 19 3 46 8 60 10 14 3 25 5 25 6 0 0 20 3 45 5 25 3 61 7 80
10 111 16 235 28 430 40 231 15 672 0 910 -30 30 -4 70 -9 89 -11 19 -2 46 -6
60 -9 14 -2 40 -6 57 -9 17 -3 46 -8 65 -10 31 -5 90 -16 159 -31 14 -3 39 -7
55 -10 17 -3 80 -16 140 -31 61 -14 117 -27 126 -29 8 -2 39 -10 68 -19 29 -8
56 -15 59 -14 4 1 14 -1 22 -5 8 -3 29 -9 45 -13 17 -4 32 -8 35 -9 3 -1 19
-5 35 -10 17 -4 34 -10 40 -13 5 -4 16 -7 25 -8 24 -3 53 -11 85 -24 17 -6 30
-10 30 -9 0 3 325 -99 375 -118 28 -11 145 -53 155 -56 6 -2 30 -10 55 -17 25
-8 55 -20 68 -28 12 -8 25 -12 29 -9 3 4 18 0 32 -7 14 -8 64 -29 111 -46 47
-18 94 -37 105 -42 12 -5 27 -10 35 -12 31 -6 90 -37 90 -46 0 -11 -42 -4 -75
13 -11 6 -22 10 -25 9 -3 -1 -45 11 -95 27 -49 16 -117 36 -150 46 -33 9 -67
20 -75 24 -8 5 -23 7 -32 5 -10 -1 -18 2 -18 7 0 5 -3 8 -7 7 -10 -3 -144 30
-203 49 -25 8 -56 16 -70 18 -14 3 -45 10 -70 16 -25 6 -52 12 -60 13 -8 2
-25 6 -37 10 -22 7 -51 14 -93 22 -14 2 -36 7 -50 10 -68 16 -158 34 -192 39
-15 2 -35 6 -45 9 -10 3 -35 7 -57 11 -21 3 -42 7 -46 10 -5 3 -28 7 -52 10
-50 6 -93 12 -127 19 -22 5 -76 12 -156 21 -16 2 -30 5 -30 5 0 2 -12 4 -100
14 -22 2 -40 5 -40 6 0 1 -16 3 -35 5 -376 37 -570 47 -950 48 -371 1 -591
-11 -865 -48 -16 -2 -46 -6 -65 -9 -73 -9 -277 -44 -350 -61 -14 -3 -38 -8
-55 -11 -16 -2 -46 -9 -65 -14 -19 -5 -44 -11 -55 -13 -11 -2 -27 -6 -35 -9
-8 -3 -42 -12 -75 -19 -33 -7 -67 -16 -76 -20 -9 -5 -29 -11 -45 -13 -16 -3
-121 -33 -234 -67 -113 -33 -225 -66 -250 -74 -25 -7 -57 -17 -71 -23 -15 -6
-30 -8 -33 -5 -3 4 -6 0 -6 -7 0 -7 -3 -11 -6 -7 -3 3 -18 1 -33 -5 -14 -5
-33 -11 -41 -13 -8 -2 -44 -13 -80 -25 -36 -12 -72 -24 -80 -25 -8 -2 -16 -4
-17 -5 -2 -2 -6 -3 -10 -5 -5 -1 -15 -4 -23 -7 -8 -3 -49 -16 -90 -28 -41 -12
-93 -28 -115 -35 -22 -8 -87 -28 -145 -45 -58 -17 -112 -34 -120 -37 -8 -3
-20 -7 -26 -8 -6 -2 -21 -6 -33 -10 -31 -9 -27 13 10 55 17 19 40 46 52 60 13
14 33 41 47 60 23 32 35 47 75 91 8 9 15 19 15 23 0 5 11 22 25 40 49 60 145
194 145 201 0 3 8 14 18 24 31 35 42 50 42 59 0 4 9 18 20 30 12 12 18 22 15
22 -2 0 4 10 15 23 10 12 19 25 20 30 0 4 8 16 18 26 28 32 39 46 52 72 7 13
16 26 19 29 3 3 20 25 36 50 17 25 36 51 43 58 6 7 12 17 12 22 0 5 12 22 26
39 14 17 22 31 18 31 -4 0 3 9 16 20 13 11 19 20 15 20 -5 0 1 10 12 23 11 12
28 37 39 55 10 17 22 32 27 32 4 0 5 5 2 10 -3 6 -3 10 2 10 9 0 47 62 45 73
-1 4 2 7 7 7 4 0 28 30 52 68 23 37 48 70 53 74 6 4 7 8 3 8 -5 0 -2 7 5 15
28 30 36 43 52 73 9 17 26 41 39 53 12 12 15 19 7 15 -12 -6 -12 -5 1 6 8 7
18 21 22 31 3 9 11 17 17 17 6 0 8 5 5 10 -3 6 -1 10 5 10 6 0 8 5 5 10 -3 6
1 13 9 16 9 3 16 10 16 15 0 6 5 15 10 22 6 7 32 46 60 87 27 41 53 80 58 86
5 5 15 21 22 34 7 13 17 29 21 34 5 6 21 29 36 51 68 103 88 130 95 133 5 2 6
8 2 13 -3 5 0 9 5 9 6 0 11 7 11 16 0 9 5 12 12 8 6 -4 8 -3 5 3 -3 5 28 52
71 104 75 92 75 102 0 28 -21 -21 -38 -34 -38 -31 -1 4 -8 -5 -16 -20 -8 -16
-21 -28 -29 -28 -8 0 -14 -3 -13 -7 1 -5 -22 -33 -52 -64 -30 -30 -71 -73 -89
-95 -19 -21 -39 -38 -44 -36 -5 1 -6 -1 -3 -6 3 -5 -7 -20 -22 -34 -15 -13
-45 -47 -67 -74 -22 -27 -52 -61 -67 -76 -14 -16 -24 -28 -21 -28 3 0 -8 -13
-25 -30 -18 -16 -29 -30 -25 -30 3 0 -6 -11 -21 -25 -14 -13 -26 -27 -26 -30
0 -5 -40 -53 -76 -91 -12 -13 -20 -24 -18 -26 2 -2 -10 -19 -26 -36 -16 -18
-42 -49 -57 -70 -45 -59 -47 -63 -64 -81 -8 -10 -18 -25 -22 -34 -3 -9 -11
-17 -17 -17 -5 0 -10 -4 -10 -10 0 -11 -23 -42 -56 -74 -11 -12 -23 -29 -27
-38 -3 -10 -11 -18 -17 -18 -5 0 -10 -5 -10 -11 0 -10 -58 -89 -80 -109 -3 -3
-11 -17 -19 -32 -8 -16 -18 -28 -23 -28 -4 0 -8 -6 -8 -14 0 -7 -13 -24 -29
-37 -16 -13 -29 -28 -29 -32 0 -8 -54 -77 -80 -104 -7 -7 -10 -13 -7 -13 6 0
-51 -78 -65 -90 -4 -3 -9 -13 -13 -23 -4 -11 -12 -15 -18 -11 -8 4 -9 3 -5 -4
4 -7 2 -12 -5 -12 -7 0 -10 -3 -6 -6 3 -3 -4 -16 -16 -29 -12 -12 -29 -33 -37
-45 -8 -13 -25 -35 -37 -49 -31 -35 -35 -41 -63 -81 -30 -42 -49 -67 -72 -91
-9 -9 -14 -20 -10 -23 3 -3 -2 -6 -11 -6 -9 0 -17 -7 -17 -15 0 -8 -4 -15 -8
-15 -5 0 -15 -11 -22 -25 -7 -13 -18 -22 -23 -18 -6 3 -7 2 -4 -4 3 -5 -11
-28 -31 -51 -20 -23 -46 -54 -57 -68 -11 -14 -39 -47 -63 -72 -23 -25 -42 -50
-42 -55 0 -4 -5 -5 -12 -1 -6 4 -8 3 -5 -2 3 -6 -19 -37 -49 -69 -30 -33 -54
-63 -54 -67 0 -3 -9 -10 -20 -13 -11 -4 -18 -10 -15 -15 3 -5 -6 -17 -20 -28
-14 -11 -25 -26 -25 -33 0 -7 -2 -10 -5 -7 -5 5 -75 -59 -75 -68 0 -8 -91 -94
-100 -94 -6 0 -10 -7 -10 -15 0 -8 -8 -15 -17 -15 -9 0 -14 -3 -11 -6 6 -5
-26 -44 -36 -44 -9 0 -73 -70 -68 -75 3 -3 0 -5 -7 -5 -6 0 -33 -20 -59 -45
-26 -25 -53 -45 -61 -45 -8 0 -11 -3 -8 -7 7 -7 -33 -39 -45 -36 -3 1 -9 -4
-12 -12 -8 -21 -4 -20 104 28 25 11 50 20 55 21 6 1 20 7 31 14 12 6 24 8 28
5 3 -3 6 -1 6 5 0 7 3 11 8 10 4 -1 21 4 37 12 17 7 46 19 65 27 19 9 47 21
61 27 14 7 33 12 42 10 10 -1 15 2 11 7 -3 5 -1 9 4 9 5 0 27 8 48 17 22 9 41
17 44 18 3 1 17 7 33 13 15 7 39 17 55 24 15 6 29 12 32 13 15 5 51 20 98 41
28 12 52 21 52 18 0 -3 10 2 22 10 12 9 28 16 35 16 7 0 38 12 69 26 31 14 64
27 73 29 9 2 31 11 48 20 18 9 37 14 43 10 5 -3 10 -2 10 2 0 5 17 15 38 22
20 7 46 16 57 21 35 16 186 72 198 74 7 1 18 5 24 9 7 5 18 5 25 1 7 -4 8 -3
4 4 -4 7 -1 13 8 13 25 2 30 4 44 12 6 5 12 6 12 3 0 -3 20 3 45 14 25 11 45
17 45 15 0 -2 15 2 34 10 18 8 36 11 40 8 3 -4 6 -1 6 5 0 8 44 25 65 23 2 0
20 6 40 15 19 8 35 11 35 8 0 -4 7 -1 15 6 8 6 18 9 24 6 5 -3 11 -2 13 3 1 6
14 12 28 14 14 3 37 10 53 16 15 6 27 8 27 5 0 -4 7 -1 15 6 8 7 15 9 15 5 0
-4 7 -2 15 5 8 7 15 10 15 6 0 -3 11 -1 25 4 14 5 38 12 53 15 45 10 47 10 60
19 7 4 16 5 19 2 3 -3 12 -1 20 5 7 6 13 8 13 5 0 -4 8 -2 18 3 9 5 31 11 47
14 17 3 45 10 64 16 19 6 37 9 39 6 3 -3 11 0 17 5 7 6 27 12 44 13 17 1 31 5
31 8 0 3 6 6 13 6 6 0 26 3 42 7 17 3 44 8 60 11 17 3 44 10 60 15 17 5 46 12
65 14 34 5 56 9 115 22 17 4 44 8 60 10 17 1 30 3 30 4 0 2 33 9 75 15 19 2
46 7 60 10 30 6 96 16 130 19 14 2 45 6 70 11 25 4 63 9 85 11 22 1 40 4 40 4
0 1 14 4 30 5 46 4 137 16 165 20 14 3 63 7 110 10 47 3 108 8 135 10 276 24
659 24 925 0 25 -2 71 -6 103 -9 63 -5 146 -15 187 -23 14 -2 39 -5 55 -7 17
-2 32 -4 35 -5 3 -2 19 -4 35 -5 17 -2 44 -6 60 -9 17 -4 46 -9 65 -11 19 -3
49 -7 66 -10 17 -3 48 -8 70 -11 21 -2 62 -9 89 -15 28 -5 59 -11 70 -13 11
-1 25 -5 30 -8 6 -3 26 -6 45 -8 19 -2 40 -7 46 -12 6 -5 13 -7 16 -4 4 5 56
-4 153 -26 46 -10 104 -21 123 -22 6 0 12 -3 12 -7 0 -3 8 -6 18 -6 9 -1 31
-4 47 -7 17 -4 44 -9 60 -12 17 -4 41 -10 55 -15 14 -5 39 -11 55 -14 33 -4
162 -35 185 -43 8 -3 26 -7 40 -9 14 -2 36 -6 50 -10 14 -4 28 -7 33 -6 4 1 7
-1 7 -6 0 -4 14 -8 31 -9 17 -1 37 -7 44 -13 6 -5 14 -7 17 -4 3 3 22 -1 41
-10 19 -8 37 -12 40 -10 3 3 20 -1 38 -9 19 -7 40 -12 48 -9 8 2 11 0 8 -5 -3
-5 2 -9 11 -9 26 -2 78 -13 106 -24 15 -5 26 -7 26 -4 0 4 6 2 13 -4 6 -5 26
-12 43 -15 17 -3 40 -10 51 -16 11 -5 23 -8 26 -4 4 3 13 1 20 -5 7 -7 31 -14
53 -18 21 -3 41 -9 44 -14 3 -4 13 -6 22 -4 10 1 20 -2 24 -7 3 -5 10 -7 15
-4 5 4 9 2 9 -3 0 -5 6 -9 13 -10 15 -1 29 -5 87 -22 25 -8 48 -14 52 -14 3
-1 9 -4 13 -8 4 -4 13 -4 20 -2 7 3 16 0 20 -5 3 -6 11 -9 16 -6 5 4 9 2 9 -3
0 -5 6 -9 13 -10 41 -5 77 -15 77 -22 0 -5 8 -7 18 -6 9 2 20 -1 23 -7 4 -5
18 -9 33 -9 14 0 26 -5 26 -10 0 -6 6 -8 14 -5 8 3 17 3 21 -1 4 -4 10 -7 13
-8 4 0 20 -6 36 -13 16 -6 36 -13 45 -14 9 -1 22 -6 29 -10 6 -5 12 -5 12 0 0
4 4 3 8 -4 4 -6 19 -13 32 -15 14 -2 31 -7 38 -11 6 -5 17 -5 22 -2 6 3 10 1
10 -6 0 -7 3 -9 7 -6 3 4 12 2 20 -4 7 -6 13 -9 13 -6 0 3 12 0 27 -8 15 -8
30 -12 35 -9 4 3 8 1 8 -5 0 -5 8 -8 18 -6 9 1 26 -5 36 -14 16 -13 18 -13 11
-1 -7 12 -6 13 7 3 8 -7 18 -10 21 -6 4 3 7 1 7 -5 0 -6 7 -9 15 -6 8 4 15 1
15 -5 0 -6 7 -8 17 -4 14 5 12 10 -12 29 -16 13 -32 21 -37 18 -4 -3 -8 2 -8
11 0 9 -4 13 -10 10 -5 -3 -10 -1 -10 4 0 6 -6 11 -13 11 -7 0 -23 9 -35 20
-12 11 -24 20 -28 20 -4 0 -15 10 -25 22 -11 11 -19 18 -19 14 0 -8 -71 43
-82 59 -4 5 -8 6 -8 2 0 -5 -7 -1 -17 8 -9 9 -35 28 -57 42 -23 14 -44 31 -48
37 -5 6 -8 7 -8 1 0 -6 -3 -6 -8 0 -4 6 -23 22 -42 35 -19 14 -39 28 -45 32
-55 44 -147 107 -163 112 -11 4 -23 13 -26 21 -3 8 -11 15 -18 15 -7 0 -25 11
-40 25 -15 14 -32 25 -38 25 -5 0 -10 5 -10 11 0 5 -4 8 -9 5 -5 -4 -11 -3
-13 2 -1 4 -39 32 -83 62 -44 30 -84 58 -90 63 -5 4 -46 31 -90 59 -44 29 -81
56 -83 60 -2 5 -10 8 -18 8 -8 0 -14 5 -14 11 0 5 -4 7 -10 4 -5 -3 -10 -1
-10 6 0 7 -3 10 -6 6 -3 -3 -15 3 -26 13 -12 10 -35 26 -53 34 -18 9 -38 22
-45 31 -7 8 -19 15 -26 15 -8 0 -14 5 -14 11 0 5 -4 7 -10 4 -5 -3 -10 -2 -10
3 0 8 -46 35 -63 36 -4 1 -11 6 -15 11 -9 12 -61 44 -84 52 -10 3 -18 9 -18
14 0 5 -6 9 -14 9 -7 0 -25 9 -38 20 -14 10 -28 17 -30 14 -3 -2 -11 2 -18 11
-7 8 -18 15 -26 15 -7 0 -19 6 -26 13 -7 7 -60 37 -118 66 -58 29 -119 62
-136 72 -17 10 -34 16 -37 12 -4 -3 -7 0 -7 7 0 7 -3 10 -7 7 -3 -4 -15 1 -26
10 -10 10 -21 17 -23 16 -2 -1 -25 7 -51 19 -27 12 -50 22 -53 23 -3 0 -21 8
-40 17 -32 16 -108 49 -120 53 -3 1 -18 7 -33 13 -16 7 -30 12 -31 12 -2 0
-21 8 -42 17 -22 9 -43 18 -49 19 -5 1 -40 13 -77 27 -36 14 -69 23 -72 20 -3
-4 -6 -1 -6 5 0 7 -8 12 -19 12 -10 0 -38 7 -62 16 -24 9 -52 16 -62 16 -9 -1
-15 3 -12 8 3 5 -3 7 -15 5 -11 -2 -22 0 -25 4 -2 5 -22 12 -42 16 -21 5 -42
9 -48 11 -35 10 -130 34 -155 39 -8 2 -33 7 -55 13 -22 5 -47 10 -55 10 -15 1
-55 9 -55 12 0 1 -9 3 -20 5 -11 1 -36 5 -55 8 -19 3 -51 9 -70 13 -19 3 -51
8 -70 9 -19 2 -35 4 -35 5 0 1 -14 3 -31 5 -17 1 -37 6 -44 10 -9 6 -11 4 -5
-5 6 -9 4 -11 -6 -4 -8 4 -27 9 -44 10 -16 1 -61 5 -100 8 -212 19 -467 23
-675 11 -197 -11 -219 -12 -285 -19 -33 -4 -78 -9 -100 -11 -46 -4 -118 -14
-155 -21 -14 -3 -47 -7 -74 -10 -43 -4 -48 -3 -42 13 4 9 14 40 23 67 9 28 23
61 30 72 8 12 16 32 19 45 3 13 6 29 7 34 2 6 6 16 10 22 5 7 22 52 38 100 17
49 35 93 40 99 5 7 9 16 8 20 -1 5 3 23 10 39 7 17 14 37 16 45 2 8 15 45 29
83 14 37 22 67 18 67 -4 0 -2 4 3 8 6 4 18 30 27 57 9 28 27 79 41 115 13 36
25 67 25 70 0 3 3 13 6 23 3 9 9 25 12 35 3 9 4 17 2 18 -2 0 3 8 10 17 8 9
11 21 7 27 -3 5 -1 10 4 10 6 0 11 9 11 19 0 11 5 23 10 26 6 4 8 10 5 15 -3
5 -1 11 5 15 6 4 8 10 5 15 -3 5 2 21 11 35 9 14 13 25 10 25 -4 0 1 14 10 31
8 17 18 41 20 52 3 12 6 27 8 32 1 6 8 20 14 33 7 12 10 22 6 22 -3 0 -2 6 3
13 13 16 38 89 35 101 -2 5 1 12 6 15 9 6 45 115 42 127 -1 4 2 10 7 13 5 3
21 44 37 91 16 47 35 97 42 113 8 15 12 27 8 27 -4 0 -1 6 5 14 7 8 14 27 17
42 3 16 6 30 8 31 1 2 67 6 147 10 188 10 540 10 704 0 71 -5 126 -5 123 -1
-4 3 -26 8 -50 10 -24 1 -43 3 -43 4 0 13 -571 17 -599 5 -14 -6 -17 -5 -12 3
8 13 3 16 -7 6z"/>
<path d="M12768 12613 c7 -3 16 -2 19 1 4 3 -2 6 -13 5 -11 0 -14 -3 -6 -6z"/>
<path d="M12828 12613 c7 -3 16 -2 19 1 4 3 -2 6 -13 5 -11 0 -14 -3 -6 -6z"/>
<path d="M12548 12603 c23 -2 61 -2 85 0 23 2 4 4 -43 4 -47 0 -66 -2 -42 -4z"/>
<path d="M13088 12603 c23 -2 59 -2 80 0 20 2 1 4 -43 4 -44 0 -61 -2 -37 -4z"/>
<path d="M13238 12598 c5 -5 16 -8 23 -6 8 3 3 7 -10 11 -17 4 -21 3 -13 -5z"/>
<path d="M5130 12591 c0 -4 6 -8 13 -8 6 0 47 -3 90 -7 43 -4 77 -4 77 1 0 5
-17 9 -37 10 -21 0 -62 3 -90 6 -29 2 -53 2 -53 -2z"/>
<path d="M12360 12590 c-9 -6 -10 -10 -3 -10 6 0 15 5 18 10 8 12 4 12 -15 0z"/>
<path d="M12403 12593 c9 -2 23 -2 30 0 6 3 -1 5 -18 5 -16 0 -22 -2 -12 -5z"/>
<path d="M12458 12593 c6 -2 18 -2 25 0 6 3 1 5 -13 5 -14 0 -19 -2 -12 -5z"/>
<path d="M13298 12593 c6 -2 18 -2 25 0 6 3 1 5 -13 5 -14 0 -19 -2 -12 -5z"/>
<path d="M13351 12571 c6 -14 15 -31 21 -38 6 -7 8 -13 5 -13 -3 0 2 -19 12
-42 31 -72 34 -83 32 -95 -1 -7 3 -13 9 -13 6 0 9 -4 5 -9 -3 -5 -1 -12 4 -15
4 -3 11 -18 14 -33 3 -16 10 -39 15 -53 5 -14 11 -29 12 -35 1 -5 6 -18 12
-28 5 -10 11 -28 13 -39 3 -12 10 -25 17 -30 7 -4 10 -8 6 -8 -4 0 6 -36 21
-80 16 -43 26 -81 23 -85 -3 -3 0 -5 6 -5 7 0 12 -8 12 -18 0 -10 3 -22 7 -26
4 -3 8 -14 9 -22 1 -9 6 -23 10 -32 4 -9 8 -22 9 -28 2 -6 22 -63 45 -125 23
-63 43 -118 44 -124 2 -5 6 -17 9 -25 25 -65 60 -169 64 -190 3 -14 13 -34 22
-44 9 -11 11 -16 4 -12 -8 4 -8 -2 2 -20 8 -15 12 -31 9 -36 -3 -4 0 -8 7 -8
7 0 10 -2 7 -6 -3 -3 10 -44 28 -92 19 -48 35 -89 36 -92 0 -3 5 -16 11 -30 6
-14 9 -31 8 -37 -1 -7 4 -13 10 -13 7 0 10 -3 6 -6 -3 -3 3 -26 13 -50 11 -24
17 -44 14 -44 -2 0 1 -10 8 -22 7 -13 13 -26 14 -30 1 -5 3 -10 4 -13 1 -3 3
-8 4 -12 1 -5 10 -26 20 -48 10 -22 19 -44 20 -50 1 -5 5 -16 9 -22 5 -7 10
-21 12 -30 2 -10 7 -26 11 -37 8 -20 19 -20 -133 0 -26 4 -59 8 -73 10 -38 6
-130 16 -270 29 -303 28 -802 18 -1045 -20 -22 -4 -56 -8 -75 -10 -19 -1 -51
-6 -70 -10 -19 -4 -44 -8 -55 -10 -11 -1 -38 -6 -60 -10 -22 -5 -48 -8 -57 -7
-10 0 -18 -3 -18 -7 0 -4 -10 -8 -22 -9 -13 0 -39 -4 -58 -8 -19 -3 -43 -7
-52 -7 -10 -1 -18 -6 -18 -11 0 -5 -3 -7 -6 -3 -3 3 -23 -1 -45 -8 -21 -8 -39
-12 -39 -10 0 2 -18 -2 -40 -10 -22 -8 -40 -12 -40 -9 0 2 -12 -2 -27 -9 -16
-7 -35 -13 -43 -12 -8 0 -21 -5 -28 -12 -8 -7 -17 -11 -22 -8 -7 5 -241 -73
-322 -108 -20 -8 -39 -13 -42 -9 -3 3 -6 0 -6 -6 0 -7 -11 -12 -25 -12 -14 0
-25 -4 -25 -10 0 -5 -6 -10 -12 -10 -7 -1 -31 -9 -53 -20 -22 -11 -48 -19 -57
-20 -10 0 -18 -4 -18 -10 0 -5 -5 -10 -11 -10 -12 0 -68 -25 -160 -71 -31 -16
-59 -26 -63 -22 -3 3 -6 2 -6 -4 0 -6 -15 -17 -32 -24 -18 -7 -79 -39 -136
-70 -57 -32 -104 -57 -105 -57 -1 0 -20 -10 -42 -23 -22 -13 -42 -22 -44 -21
-2 2 -7 0 -10 -5 -7 -9 -192 -120 -203 -122 -5 -1 -17 -10 -28 -21 -11 -11
-27 -20 -35 -20 -8 0 -15 -4 -15 -10 0 -5 -5 -10 -10 -10 -9 0 -65 -35 -80
-50 -3 -3 -17 -11 -32 -19 -15 -8 -38 -24 -50 -35 -12 -12 -23 -19 -24 -16 -2
3 -14 -5 -27 -17 -14 -12 -28 -19 -31 -16 -3 4 -6 1 -6 -5 0 -7 -4 -12 -10
-12 -11 0 -142 -90 -152 -105 -4 -5 -8 -6 -8 -2 0 5 -7 2 -15 -5 -34 -31 -43
-36 -49 -31 -3 4 -6 2 -6 -4 0 -6 -19 -22 -42 -36 -24 -14 -54 -35 -67 -46
-13 -12 -30 -21 -38 -21 -8 0 -11 -4 -8 -10 3 -5 2 -10 -3 -10 -5 0 -33 -16
-61 -35 -28 -19 -55 -35 -61 -35 -6 0 -9 -4 -5 -9 3 -5 -13 -17 -34 -27 -22
-10 -38 -21 -35 -26 3 -4 0 -8 -7 -8 -12 0 -109 -67 -121 -85 -5 -6 -8 -6 -8
0 0 6 -3 6 -8 -1 -4 -6 -59 -46 -122 -89 -63 -43 -118 -83 -122 -89 -4 -6 -8
-7 -8 -3 0 8 -13 -2 -51 -35 -10 -10 -19 -16 -19 -13 0 3 -11 -5 -25 -19 -32
-32 -32 -38 2 -21 15 8 30 12 35 9 4 -3 8 0 8 6 0 6 5 8 10 5 6 -4 17 -1 25 5
8 7 15 9 15 5 0 -4 7 -2 15 5 8 7 15 9 15 6 0 -4 10 -1 23 6 22 12 42 18 65
20 6 1 12 5 12 9 0 5 7 6 15 3 8 -4 15 -2 15 3 0 8 15 12 58 15 6 1 12 5 12
10 0 4 3 7 8 6 6 -2 65 15 102 29 8 4 18 7 22 7 3 1 9 4 13 8 4 4 13 4 21 1 8
-3 14 0 14 6 0 6 6 8 14 5 8 -3 17 0 21 5 3 6 11 9 16 6 5 -4 9 -1 9 5 0 6 4
8 10 5 5 -3 23 1 41 10 17 9 33 14 36 11 3 -3 18 1 33 9 15 8 30 11 34 8 3 -4
6 -1 6 6 0 7 4 10 8 7 5 -3 20 1 33 8 14 7 33 12 42 10 9 -1 17 2 17 7 0 6 3
8 8 6 4 -3 18 0 32 6 14 6 32 11 40 12 8 1 26 6 40 12 14 6 28 9 33 6 4 -2 7
1 7 7 0 7 7 10 15 7 8 -4 17 -2 20 3 3 5 12 7 20 3 8 -3 15 -1 15 4 0 5 6 10
13 11 25 3 62 10 65 12 1 2 7 4 12 5 6 1 11 3 13 5 2 2 16 5 54 14 12 2 30 9
40 14 10 5 26 8 36 7 9 -2 15 1 12 5 -3 5 3 9 12 9 10 0 36 5 58 11 22 6 47
12 55 14 9 1 21 5 28 10 6 4 16 5 21 1 5 -3 12 -1 15 4 3 5 23 12 43 16 92 19
108 23 108 25 0 1 7 3 15 5 38 9 66 16 75 19 6 2 28 7 50 11 55 12 55 12 58
15 1 1 9 3 17 5 62 15 78 19 103 19 15 1 27 5 27 10 0 4 7 6 15 2 8 -3 15 -2
15 3 0 4 6 8 13 8 31 2 74 10 82 15 6 3 26 9 45 12 19 3 46 8 60 12 14 3 32 7
40 8 9 1 21 5 28 10 6 4 12 5 12 2 0 -2 15 0 33 5 17 5 51 12 74 15 23 3 67
11 99 19 32 7 62 11 66 9 5 -3 8 -1 8 3 0 5 15 10 33 11 18 1 43 5 55 7 12 3
32 7 45 10 12 3 36 7 52 10 17 3 44 7 60 10 17 3 45 8 64 10 51 8 94 15 111
20 8 2 40 7 70 10 30 3 69 8 85 11 29 4 42 6 150 19 361 44 711 50 1115 20 41
-3 104 -8 140 -10 36 -2 84 -6 108 -9 23 -3 61 -9 85 -12 23 -3 62 -8 87 -10
66 -7 105 -12 105 -13 0 -1 18 -4 40 -6 61 -6 115 -14 170 -25 28 -5 66 -12
85 -14 19 -3 51 -8 70 -11 19 -4 44 -8 55 -9 11 -2 20 -4 20 -5 0 -2 20 -5 45
-7 25 -3 47 -9 50 -12 3 -4 14 -7 25 -8 11 -1 36 -4 55 -8 19 -4 45 -8 58 -9
12 0 22 -4 22 -7 0 -3 8 -6 18 -7 20 -2 59 -9 87 -17 36 -10 189 -46 220 -52
17 -3 34 -9 39 -14 5 -5 15 -6 22 -3 8 3 14 0 14 -6 0 -6 7 -8 15 -5 8 4 21 2
28 -3 6 -6 28 -13 47 -17 33 -6 127 -32 160 -44 17 -6 34 -11 53 -15 6 -1 18
-6 25 -10 6 -5 12 -6 12 -3 0 3 23 -3 50 -14 28 -11 50 -17 50 -15 0 3 13 -1
30 -10 16 -8 33 -15 37 -15 8 0 67 -17 93 -27 8 -4 18 -5 23 -5 4 1 7 -3 7 -9
0 -5 4 -7 10 -4 5 3 19 1 30 -5 12 -6 29 -13 38 -15 19 -5 82 -27 127 -46 17
-7 36 -13 44 -15 7 -1 37 -12 66 -24 29 -12 59 -22 66 -24 8 -1 19 -4 24 -8
13 -8 225 -89 235 -90 3 0 22 -9 42 -19 21 -10 44 -19 53 -19 8 0 15 -4 15 -8
0 -5 7 -9 15 -10 8 -1 22 -3 30 -4 8 -1 15 -4 15 -8 0 -3 36 -19 79 -35 44
-16 77 -34 74 -39 -4 -5 -1 -6 5 -2 6 4 26 -1 44 -11 18 -9 38 -18 43 -19 6
-1 24 -8 40 -15 17 -7 33 -13 37 -13 3 -1 10 -4 14 -8 4 -5 16 -8 26 -8 10 0
18 -4 18 -10 0 -5 9 -10 20 -10 11 0 20 -5 20 -11 0 -5 4 -8 9 -5 5 3 29 -5
55 -19 25 -13 49 -24 51 -24 3 1 25 -7 48 -17 23 -9 47 -18 52 -20 6 -1 27 -9
47 -18 21 -9 40 -16 43 -16 3 0 20 -7 38 -16 30 -15 30 -13 -13 28 -25 24 -48
43 -52 41 -4 -2 -9 6 -13 17 -3 11 -12 19 -18 17 -7 -1 -11 4 -10 10 2 7 -1
12 -5 10 -4 -1 -32 22 -61 51 -30 28 -58 52 -63 52 -5 0 -6 5 -3 10 3 6 1 10
-5 10 -11 0 -133 121 -253 251 -37 41 -79 87 -95 103 -15 16 -26 32 -25 37 2
5 -4 9 -12 9 -8 0 -15 3 -15 8 0 4 -15 23 -33 43 -60 67 -87 99 -87 104 0 2
-12 17 -27 33 -30 31 -100 114 -120 142 -7 10 -9 21 -5 25 4 5 2 5 -4 2 -7 -4
-19 5 -29 19 -17 27 -41 57 -63 80 -7 8 -11 14 -7 14 3 0 -5 11 -19 24 -15 13
-26 27 -26 31 0 4 -10 16 -22 26 -11 11 -18 19 -15 19 4 0 -2 9 -13 20 -12 12
-18 26 -14 32 4 6 3 8 -4 4 -6 -3 -21 8 -33 26 -12 18 -34 45 -47 61 -14 15
-22 27 -18 27 4 0 -6 12 -21 26 -15 14 -21 22 -13 18 8 -4 4 4 -10 18 -36 37
-95 120 -93 130 2 4 -3 8 -11 8 -8 0 -18 9 -21 20 -3 11 -10 20 -15 20 -5 0
-11 8 -15 19 -3 10 -16 30 -28 44 -38 43 -61 73 -102 133 -22 31 -48 66 -57
76 -10 10 -16 18 -13 18 3 0 -4 11 -17 24 -13 13 -30 33 -38 46 -8 12 -21 28
-27 36 -7 7 -13 15 -13 19 0 4 -6 12 -12 19 -16 17 -44 52 -109 136 -27 36
-61 77 -74 91 -14 14 -25 29 -25 32 0 4 -8 15 -17 25 -10 10 -29 32 -43 50
-14 18 -46 57 -72 85 -26 29 -48 58 -48 65 0 7 -4 10 -10 7 -5 -3 -10 -2 -10
4 0 6 -10 21 -22 34 -13 13 -49 52 -81 86 -32 33 -56 61 -53 61 3 0 -26 31
-64 69 -39 38 -70 74 -70 81 0 7 -28 41 -62 77 -93 96 -119 124 -158 168 -20
22 -40 41 -45 43 -6 1 -10 8 -10 15 0 6 -6 12 -12 12 -7 0 -13 4 -12 8 1 11
-234 242 -327 321 -38 33 -75 66 -81 75 -7 8 -13 11 -13 7 0 -4 -18 11 -40 34
-22 23 -40 39 -40 35 0 -3 -11 6 -25 21 -14 15 -25 24 -25 20 0 -4 -11 4 -24
18 -13 15 -31 26 -40 26 -10 0 15 -25 57 -57 128 -99 257 -212 376 -327 133
-129 129 -126 222 -236 40 -47 78 -89 84 -95 12 -10 79 -105 163 -230 26 -38
50 -71 55 -73 4 -2 7 -10 7 -17 0 -8 8 -19 18 -24 9 -6 13 -11 9 -11 -4 0 1
-10 12 -21 11 -12 27 -37 36 -55 9 -19 20 -34 25 -34 6 0 10 -7 10 -15 0 -8 5
-15 11 -15 5 0 7 -4 4 -10 -3 -5 -2 -10 3 -10 5 0 15 -13 22 -30 7 -16 15 -30
19 -30 3 0 26 -31 50 -70 24 -38 48 -70 53 -70 4 0 7 -3 6 -7 -3 -9 53 -96 65
-101 4 -2 5 -8 1 -13 -3 -5 -1 -9 4 -9 5 0 17 -16 28 -35 10 -19 22 -35 26
-35 5 0 8 -4 8 -10 0 -8 65 -108 90 -137 6 -7 7 -13 3 -13 -4 0 -3 -4 3 -8 6
-4 26 -29 44 -57 19 -27 38 -52 42 -53 4 -2 6 -8 2 -13 -3 -5 0 -9 6 -9 6 0 8
-4 5 -10 -3 -5 -2 -10 4 -10 6 0 18 -15 27 -32 9 -18 20 -35 23 -38 3 -3 39
-54 80 -115 134 -199 245 -360 257 -373 7 -6 16 -21 19 -32 4 -11 11 -18 16
-15 5 4 9 1 9 -6 0 -6 37 -63 83 -126 45 -63 87 -122 92 -131 6 -10 12 -19 15
-22 3 -3 21 -25 40 -50 19 -25 38 -46 42 -48 5 -2 8 -8 8 -13 0 -11 19 -34 88
-107 44 -48 61 -72 49 -72 -1 0 -56 15 -122 34 -65 19 -123 32 -129 29 -5 -3
-6 -2 -3 4 3 5 -16 15 -43 22 -27 7 -98 28 -157 48 -59 19 -118 36 -130 38
-12 2 -28 7 -35 11 -7 5 -17 9 -23 10 -5 1 -29 9 -53 18 -23 8 -43 15 -45 14
-1 0 -54 15 -117 35 -63 20 -117 36 -120 36 -3 0 -18 5 -35 11 -37 14 -303 94
-420 126 -5 2 -19 5 -30 8 -11 3 -35 9 -52 15 -18 5 -33 8 -33 5 0 -3 -8 0
-17 5 -10 5 -31 11 -48 15 -16 3 -56 11 -87 19 -32 8 -58 13 -58 10 0 -2 -8 1
-18 6 -10 5 -38 12 -62 16 -25 3 -61 10 -80 15 -19 5 -55 12 -80 15 -25 3 -52
8 -60 10 -8 3 -35 7 -60 11 -25 3 -54 7 -65 9 -39 6 -191 25 -250 31 -33 3
-76 7 -95 9 -263 30 -1039 23 -1360 -11 -30 -3 -75 -7 -100 -10 -25 -2 -61 -6
-80 -8 -19 -3 -60 -8 -90 -11 -30 -4 -66 -8 -80 -10 -14 -2 -61 -9 -105 -15
-44 -7 -89 -14 -100 -16 -11 -2 -42 -6 -70 -10 -27 -3 -52 -7 -55 -9 -9 -6
-71 -17 -90 -17 -8 0 -31 -4 -50 -9 -19 -4 -48 -11 -65 -14 -28 -5 -46 -8
-103 -19 -13 -3 -31 -7 -40 -10 -9 -3 -34 -7 -56 -11 -21 -3 -41 -7 -45 -10
-4 -2 -18 -6 -32 -9 -13 -2 -44 -9 -69 -16 -25 -6 -58 -13 -75 -16 -16 -3 -61
-15 -100 -25 -38 -11 -79 -22 -90 -24 -11 -2 -38 -9 -60 -15 -22 -6 -47 -12
-55 -14 -8 -2 -42 -12 -75 -22 -63 -19 -68 -20 -100 -27 -11 -3 -40 -12 -65
-21 -25 -9 -53 -16 -62 -16 -10 0 -18 -5 -18 -11 0 -5 -4 -8 -9 -5 -5 3 -28
-1 -52 -10 -24 -8 -51 -17 -59 -19 -8 -2 -26 -7 -39 -11 -18 -5 -23 -4 -19 7
3 8 9 14 14 15 5 0 26 8 48 17 21 9 41 17 43 17 3 0 19 6 36 14 32 14 68 28
77 31 19 4 91 31 120 43 19 9 40 17 45 18 6 1 47 16 91 32 45 17 85 28 88 25
3 -4 6 0 6 7 0 7 3 11 6 7 4 -3 19 0 35 9 16 8 32 14 36 14 12 0 45 10 68 20
20 9 270 88 303 95 9 3 40 12 67 21 46 15 58 18 77 23 4 1 22 7 40 12 18 6 40
12 48 14 8 1 42 10 75 19 109 30 286 73 334 81 19 3 38 8 42 10 4 3 22 7 40
10 34 5 70 12 79 15 3 1 8 2 13 1 4 -1 26 3 50 8 41 10 81 17 135 25 15 3 46
7 70 11 23 4 52 8 65 10 12 1 47 5 77 9 99 13 200 20 405 31 170 9 484 4 655
-11 36 -3 83 -7 106 -9 48 -3 104 -11 244 -31 57 -9 120 -18 140 -20 19 -2 42
-6 50 -9 16 -4 74 -16 100 -20 8 -1 29 -5 45 -8 17 -4 41 -9 55 -11 14 -3 43
-10 65 -15 22 -5 51 -12 65 -15 14 -3 48 -11 75 -17 28 -6 55 -12 60 -13 6 -2
24 -6 40 -11 17 -4 68 -18 115 -31 47 -12 96 -25 110 -28 14 -3 41 -10 60 -16
19 -6 60 -18 90 -26 30 -8 105 -30 165 -49 61 -20 119 -37 130 -40 11 -2 101
-31 200 -64 161 -55 200 -67 239 -74 6 -1 13 -5 16 -8 3 -4 16 -10 30 -14 l25
-7 -26 28 c-15 16 -35 40 -45 53 -11 13 -30 35 -44 49 -14 14 -25 29 -25 33 0
7 -42 64 -62 85 -7 7 -13 16 -13 19 0 4 -13 24 -30 45 -16 21 -30 43 -30 49 0
6 -3 11 -8 11 -4 0 -18 18 -32 40 -14 22 -28 40 -33 40 -4 0 -6 4 -2 9 3 5 -1
16 -9 24 -8 8 -41 54 -72 103 -32 49 -62 91 -66 92 -4 2 -8 10 -8 18 0 8 -5
14 -11 14 -5 0 -7 5 -4 10 3 6 1 10 -4 10 -6 0 -11 7 -11 15 0 9 -7 18 -15 21
-8 4 -12 10 -9 15 3 5 0 9 -5 9 -6 0 -11 5 -11 11 0 6 -10 25 -22 42 -13 17
-27 40 -33 49 -34 61 -179 284 -186 286 -5 2 -9 9 -9 15 0 14 -68 118 -84 129
-6 4 -7 8 -3 8 9 0 -31 61 -48 72 -5 4 -7 8 -3 8 9 0 -82 143 -94 148 -4 2 -8
12 -8 23 0 11 -7 22 -15 25 -8 4 -15 10 -15 14 0 5 -36 65 -80 134 -44 70 -80
131 -80 137 0 6 -4 7 -10 4 -5 -3 -10 -1 -10 5 0 7 -30 58 -67 113 -37 56 -73
112 -80 125 -7 12 -19 29 -28 38 -8 8 -15 19 -15 24 0 5 -6 15 -12 22 -14 14
-90 127 -97 142 -2 5 -9 16 -17 25 -7 9 -43 57 -79 106 -37 50 -73 97 -80 105
-67 75 -94 102 -89 88 3 -10 10 -18 14 -18 4 0 7 -6 7 -12 -2 -17 93 -212 104
-216 5 -2 7 -8 4 -12 -3 -5 6 -29 21 -52 15 -24 27 -45 27 -48 -2 -9 110 -231
119 -236 4 -3 6 -10 3 -15 -4 -5 -1 -9 5 -9 6 0 8 -4 5 -10 -3 -5 -1 -10 5
-10 6 0 9 -4 6 -9 -4 -5 -3 -11 1 -13 5 -1 31 -48 59 -103 52 -101 122 -233
177 -335 16 -30 48 -89 70 -130 21 -41 44 -78 49 -81 5 -3 10 -12 11 -20 3
-18 57 -112 69 -120 6 -3 9 -8 7 -10 -5 -9 13 -49 22 -49 6 0 7 -4 4 -10 -3
-5 -1 -10 5 -10 6 0 9 -4 5 -9 -3 -5 -1 -12 4 -15 5 -3 18 -24 29 -45 29 -55
46 -85 52 -91 3 -3 13 -21 24 -40 25 -49 68 -126 143 -257 34 -62 63 -114 63
-117 0 -2 18 -34 40 -71 23 -36 45 -77 50 -90 9 -22 8 -23 -23 -13 -18 5 -43
12 -57 15 -14 3 -29 9 -35 13 -5 4 -26 11 -45 16 -49 11 -49 11 -55 14 -3 1
-8 3 -12 5 -5 1 -15 5 -23 8 -35 14 -426 124 -475 133 -11 2 -76 17 -145 33
-68 16 -128 27 -132 25 -3 -2 -9 0 -13 6 -4 6 -10 8 -15 5 -5 -3 -20 -1 -33 4
-14 6 -49 13 -78 16 -29 3 -56 8 -59 10 -6 4 -30 8 -120 20 -14 2 -47 6 -75 9
-27 3 -59 8 -71 10 -132 27 -775 28 -924 2 -14 -3 -47 -7 -75 -11 -27 -3 -57
-7 -65 -9 -8 -3 -33 -7 -55 -11 -22 -3 -69 -10 -105 -16 -36 -6 -78 -12 -95
-14 -16 -2 -50 -8 -75 -14 -25 -5 -67 -13 -95 -17 -27 -3 -59 -8 -70 -10 -23
-4 -129 -23 -163 -29 -12 -2 -32 -7 -43 -10 -12 -4 -31 -8 -42 -10 -35 -4
-177 -35 -242 -52 -33 -8 -67 -17 -75 -18 -8 -2 -15 -4 -15 -5 0 -1 -7 -3 -15
-5 -81 -16 -477 -143 -565 -181 -22 -10 -44 -18 -50 -19 -5 -1 -21 -6 -35 -12
-14 -6 -61 -25 -105 -43 -44 -17 -86 -36 -92 -42 -7 -6 -13 -8 -13 -5 0 3 -27
-8 -60 -24 -32 -15 -70 -31 -85 -35 -14 -3 -25 -10 -25 -15 0 -5 -6 -9 -13 -9
-7 0 -37 -12 -66 -26 -53 -27 -83 -25 -46 2 23 18 468 239 475 237 3 -1 12 5
20 12 8 7 18 14 22 15 4 0 29 10 55 22 27 12 50 22 53 23 3 0 14 6 25 12 11 6
22 11 25 11 12 0 66 27 72 37 4 5 8 7 8 2 0 -4 17 1 39 12 21 11 41 17 45 14
3 -4 6 -1 6 6 0 7 5 9 10 6 6 -3 10 -1 10 4 0 6 3 10 8 9 9 -3 172 61 190 75
6 5 12 7 12 4 0 -5 86 24 150 50 8 3 20 7 25 9 6 1 76 21 157 44 82 22 156 43
165 45 10 2 47 11 83 20 78 19 187 45 215 50 11 2 30 6 41 8 12 3 37 8 55 11
19 3 45 8 59 10 25 5 201 30 290 41 194 25 705 25 824 0 11 -2 46 -6 76 -9 80
-8 170 -21 235 -33 17 -3 41 -7 55 -9 14 -1 25 -3 25 -4 0 -2 29 -8 70 -15 17
-2 48 -9 70 -15 22 -5 54 -12 71 -15 23 -4 322 -78 447 -110 9 -3 27 -8 40
-11 12 -3 33 -8 47 -11 14 -3 31 -10 38 -16 7 -5 16 -7 20 -3 4 4 -2 14 -12
22 -11 8 -17 14 -13 14 3 0 -4 10 -16 23 -30 32 -57 66 -57 73 0 8 -44 69 -52
72 -5 2 -8 8 -8 13 0 6 -9 23 -20 39 -11 17 -29 43 -39 58 -10 16 -31 52 -46
80 -15 29 -31 52 -37 52 -5 0 -8 6 -5 13 2 6 -9 31 -24 54 -16 23 -29 44 -29
48 0 3 -11 23 -25 45 -14 22 -22 40 -18 40 5 0 3 4 -2 8 -6 4 -22 30 -36 57
-35 66 -103 195 -145 273 -19 34 -30 62 -26 62 4 0 0 6 -9 13 -9 7 -22 29 -29
50 -8 20 -18 37 -24 37 -5 0 -6 3 -3 7 4 3 3 11 -2 17 -5 6 -46 83 -92 171
-45 88 -86 163 -91 166 -5 3 -9 9 -8 13 4 12 -22 66 -31 66 -5 0 -8 3 -7 8 2
10 -24 65 -35 73 -5 3 -9 10 -9 15 -1 19 -22 54 -31 54 -6 0 -7 3 -4 6 4 4 -4
21 -16 38 -12 17 -21 32 -20 33 5 6 -31 73 -39 73 -4 0 -8 7 -8 15 0 14 -18
53 -30 65 -3 3 -14 23 -25 45 -11 22 -23 42 -26 45 -3 3 -16 25 -30 50 -13 25
-27 49 -32 55 -4 5 -36 54 -70 108 -35 53 -66 95 -69 91 -8 -7 -21 33 -14 44
3 5 -1 9 -9 9 -10 0 -11 -6 -4 -26z m1220 -878 c13 -16 12 -17 -3 -4 -17 13
-22 21 -14 21 2 0 10 -8 17 -17z"/>
<path d="M13386 12592 c-3 -4 4 -9 15 -9 23 -2 25 3 4 10 -8 4 -16 3 -19 -1z"/>
<path d="M12220 12580 l-45 -7 42 -1 c23 -1 45 3 48 8 3 6 5 9 3 8 -2 0 -23
-4 -48 -8z"/>
<path d="M12303 12583 c9 -2 23 -2 30 0 6 3 -1 5 -18 5 -16 0 -22 -2 -12 -5z"/>
<path d="M5330 12572 c0 -4 55 -15 123 -24 67 -10 136 -20 152 -24 99 -18 230
-45 252 -50 17 -5 24 -3 20 3 -6 9 -48 23 -82 28 -5 0 -28 5 -50 9 -22 4 -51
10 -65 12 -26 5 -101 19 -155 29 -16 4 -46 8 -65 10 -19 2 -56 6 -82 9 -27 3
-48 2 -48 -2z"/>
<path d="M13438 12573 c7 -3 16 -2 19 1 4 3 -2 6 -13 5 -11 0 -14 -3 -6 -6z"/>
<path d="M12118 12563 c6 -2 18 -2 25 0 6 3 1 5 -13 5 -14 0 -19 -2 -12 -5z"/>
<path d="M12063 12553 c9 -2 23 -2 30 0 6 3 -1 5 -18 5 -16 0 -22 -2 -12 -5z"/>
<path d="M13514 12546 c11 -9 24 -16 30 -16 12 0 7 5 -24 19 -24 11 -24 11 -6
-3z"/>
<path d="M11988 12543 c6 -2 18 -2 25 0 6 3 1 5 -13 5 -14 0 -19 -2 -12 -5z"/>
<path d="M11938 12533 c7 -3 16 -2 19 1 4 3 -2 6 -13 5 -11 0 -14 -3 -6 -6z"/>
<path d="M11868 12523 c6 -2 18 -2 25 0 6 3 1 5 -13 5 -14 0 -19 -2 -12 -5z"/>
<path d="M11818 12513 c7 -3 16 -2 19 1 4 3 -2 6 -13 5 -11 0 -14 -3 -6 -6z"/>
<path d="M13580 12516 c0 -3 9 -10 20 -16 11 -6 20 -8 20 -6 0 3 -9 10 -20 16
-11 6 -20 8 -20 6z"/>
<path d="M11725 12500 c-19 -8 -19 -9 3 -9 12 -1 22 4 22 9 0 6 -1 10 -2 9 -2
0 -12 -4 -23 -9z"/>
<path d="M11768 12503 c6 -2 18 -2 25 0 6 3 1 5 -13 5 -14 0 -19 -2 -12 -5z"/>
<path d="M11650 12481 c0 -4 11 -6 25 -3 14 2 25 6 25 8 0 2 -11 4 -25 4 -14
0 -25 -4 -25 -9z"/>
<path d="M5890 12470 c0 -5 10 -10 23 -10 18 0 19 2 7 10 -19 13 -30 13 -30 0z"/>
<path d="M11595 12470 c-13 -5 -14 -9 -5 -9 8 0 24 4 35 9 13 5 14 9 5 9 -8 0
-24 -4 -35 -9z"/>
<path d="M5940 12461 c0 -10 90 -35 98 -27 7 8 -41 24 -54 19 -7 -2 -15 0 -19
6 -8 13 -25 14 -25 2z"/>
<path d="M11490 12449 c-41 -11 -91 -24 -110 -30 -19 -5 -44 -12 -55 -14 -11
-2 -22 -4 -25 -5 -3 -1 -8 -2 -12 -1 -5 0 -8 -3 -8 -9 0 -5 -7 -7 -15 -4 -8 4
-15 1 -15 -5 0 -15 4 -14 80 10 36 11 70 22 75 23 99 22 165 41 165 48 0 4 -1
7 -2 7 -2 -1 -37 -10 -78 -20z"/>
<path d="M6050 12433 c0 -5 33 -17 73 -27 39 -10 79 -21 87 -24 10 -3 12 -2 5
5 -5 6 -39 18 -74 28 -36 9 -71 19 -78 22 -7 3 -13 1 -13 -4z"/>
<path d="M13731 12426 c2 -2 15 -9 29 -15 24 -11 24 -11 6 3 -16 13 -49 24
-35 12z"/>
<path d="M6230 12380 c0 -8 55 -24 85 -25 6 0 13 -4 17 -10 4 -5 10 -6 14 -2
11 11 0 18 -38 24 -18 3 -41 9 -50 14 -21 11 -28 11 -28 -1z"/>
<path d="M11155 12357 c-33 -12 -63 -25 -66 -30 -3 -5 -12 -10 -20 -11 -36 -7
-123 -37 -135 -47 -7 -6 -25 -12 -39 -13 -29 -4 -42 -13 -31 -23 4 -4 10 -3
14 2 4 6 14 11 22 12 28 3 245 86 248 95 2 4 7 6 11 3 12 -7 81 15 81 25 0 14
-15 11 -85 -13z"/>
<path d="M6360 12340 c0 -5 5 -10 10 -10 6 0 10 5 10 10 0 6 -4 10 -10 10 -5
0 -10 -4 -10 -10z"/>
<path d="M6390 12339 c0 -12 25 -25 88 -47 48 -17 95 -34 105 -37 9 -4 17 -3
17 2 0 4 -24 17 -52 27 -29 10 -68 25 -86 33 -18 9 -35 13 -39 9 -3 -3 -12 2
-19 12 -12 15 -13 15 -14 1z"/>
<path d="M6610 12251 c0 -11 56 -32 64 -24 3 4 6 1 6 -5 0 -7 5 -12 10 -12 6
0 10 4 10 8 0 12 -50 33 -61 27 -5 -4 -9 -1 -9 4 0 6 -4 11 -10 11 -5 0 -10
-4 -10 -9z"/>
<path d="M10820 12225 c-14 -7 -36 -17 -50 -22 -58 -23 -122 -54 -118 -58 4
-4 187 71 197 81 12 11 -7 11 -29 -1z"/>
<path d="M6710 12212 c0 -9 187 -97 205 -97 6 0 12 -3 15 -6 10 -11 295 -162
308 -162 6 0 12 -4 12 -8 0 -4 35 -28 78 -55 42 -26 91 -58 108 -71 17 -13 34
-20 37 -16 4 3 7 2 7 -4 0 -6 24 -26 53 -46 28 -20 65 -46 81 -58 l29 -23 -12
22 c-6 12 -15 21 -20 19 -5 -1 -24 11 -42 28 -19 16 -37 29 -41 27 -5 -1 -8 3
-8 8 0 6 -6 10 -14 10 -8 0 -16 7 -20 15 -3 8 -12 15 -20 15 -7 0 -17 7 -20
16 -3 8 -10 13 -15 9 -6 -3 -13 1 -18 8 -10 16 -85 63 -95 59 -5 -1 -8 3 -8 9
0 5 -4 7 -10 4 -5 -3 -10 -1 -10 4 0 6 -6 11 -14 11 -8 0 -16 7 -20 15 -3 8
-14 15 -25 15 -10 0 -22 7 -25 16 -3 9 -13 14 -20 11 -8 -3 -17 1 -20 9 -3 8
-13 14 -21 14 -9 0 -23 7 -32 15 -8 8 -18 13 -23 10 -4 -3 -11 2 -14 11 -4 9
-9 14 -13 11 -3 -4 -18 2 -33 13 -16 11 -35 20 -44 20 -9 0 -16 4 -16 8 0 5
-21 18 -47 29 -94 41 -143 62 -148 62 -3 0 -19 8 -35 16 -17 9 -30 12 -30 7z"/>
<path d="M10570 12114 c-30 -14 -57 -28 -60 -32 -7 -10 -115 -62 -128 -62 -7
0 -12 -4 -12 -10 0 -5 -11 -12 -24 -16 -14 -3 -27 -13 -31 -21 -4 -12 -2 -13
7 -6 7 6 81 45 163 88 83 42 152 79 154 81 12 11 -20 1 -69 -22z"/>
<path d="M10290 11960 c0 -5 -7 -10 -15 -10 -8 0 -15 -5 -15 -10 0 -7 6 -7 20
0 18 10 28 30 15 30 -3 0 -5 -4 -5 -10z"/>
<path d="M10220 11923 c0 -9 -45 -36 -64 -37 -5 -1 -11 -7 -14 -15 -3 -10 8
-7 34 9 50 30 59 38 51 47 -4 3 -7 2 -7 -4z"/>
<path d="M10088 11839 c-21 -11 -38 -24 -38 -30 0 -6 -4 -8 -9 -4 -5 3 -16 -4
-24 -15 -7 -11 -16 -18 -19 -15 -3 3 -17 -6 -31 -19 -15 -14 -27 -22 -27 -18
0 4 -7 -2 -15 -12 -8 -11 -15 -16 -15 -11 0 4 -12 -5 -27 -21 -15 -16 -31 -29
-36 -29 -5 0 -14 -8 -21 -17 -7 -10 -17 -14 -21 -10 -5 4 -5 1 0 -7 7 -12 12
-10 27 8 10 13 18 20 18 17 0 -4 23 12 51 34 28 22 55 40 60 40 6 0 7 5 4 10
-3 6 1 10 9 10 9 0 25 9 36 20 11 11 21 20 23 19 10 -2 36 15 31 22 -3 5 1 9
8 9 7 0 24 9 38 20 32 25 25 24 -22 -1z"/>
<path d="M7650 11673 c0 -6 15 -23 33 -37 17 -14 39 -33 48 -41 14 -13 16 -13
16 0 0 8 -13 20 -28 27 -15 7 -25 16 -23 20 3 5 1 7 -5 6 -5 -2 -17 6 -25 17
-8 11 -16 15 -16 8z"/>
<path d="M9770 11602 c0 -4 -25 -28 -55 -52 -29 -25 -54 -48 -55 -53 0 -6 42
27 139 109 2 2 -3 4 -12 4 -9 0 -17 -4 -17 -8z"/>
<path d="M7760 11584 c0 -6 35 -42 78 -80 73 -65 80 -66 20 -2 -14 15 -31 28
-38 28 -6 0 -8 5 -4 12 4 6 3 8 -4 4 -5 -3 -20 6 -31 21 -11 16 -21 23 -21 17z"/>
<path d="M9625 11468 l-20 -21 23 12 c12 6 22 16 22 21 0 13 -2 12 -25 -12z"/>
<path d="M7927 11433 c-9 -8 12 -33 27 -33 6 0 3 5 -7 11 -9 6 -15 14 -12 20
7 10 2 12 -8 2z"/>
<path d="M9536 11385 c-28 -30 -52 -53 -54 -50 -6 6 -52 -51 -52 -65 0 -6 -5
-8 -12 -4 -7 4 -8 3 -4 -4 4 -7 1 -12 -6 -12 -13 0 -42 -37 -43 -55 0 -5 -5
-10 -11 -10 -13 0 -70 -65 -57 -65 4 0 1 -5 -7 -10 -8 -5 -15 -13 -15 -17 0
-4 -13 -21 -28 -37 -15 -16 -25 -31 -22 -34 2 -3 -7 -14 -21 -24 -14 -11 -23
-23 -20 -26 6 -5 -31 -62 -49 -74 -6 -5 -6 -8 0 -8 6 0 3 -5 -5 -10 -8 -5 -16
-14 -16 -20 -1 -5 -2 -15 -3 -21 0 -5 -5 -7 -11 -4 -5 3 -10 1 -10 -5 0 -7 -9
-25 -21 -41 -11 -16 -17 -29 -12 -29 4 0 0 -5 -10 -11 -9 -6 -15 -14 -12 -20
4 -5 1 -9 -5 -9 -6 0 -8 -4 -5 -10 3 -5 1 -10 -5 -10 -6 0 -8 -4 -5 -10 3 -5
2 -10 -2 -10 -5 0 -19 -20 -31 -45 -36 -74 -7 -51 33 26 42 82 154 264 199
326 62 85 71 98 68 106 -1 4 2 7 6 7 11 0 167 181 167 194 0 6 5 11 11 11 6 0
27 19 47 42 19 23 38 39 42 35 5 -4 5 -2 1 5 -3 7 2 14 14 18 11 3 20 13 20
21 0 8 -1 14 -2 14 -2 -1 -25 -25 -52 -55z"/>
<path d="M7965 11384 c6 -5 26 -23 45 -39 l35 -30 -25 28 c-14 16 -34 33 -45
39 -11 6 -15 6 -10 2z"/>
<path d="M8115 11228 c43 -49 80 -88 83 -88 7 0 -17 26 -97 109 -53 55 -50 51
14 -21z"/>
<path d="M8232 11090 c19 -25 54 -73 78 -107 23 -35 47 -63 51 -63 5 0 8 -3 7
-7 -4 -10 55 -103 64 -103 4 0 5 7 2 15 -4 8 -10 15 -15 15 -5 0 -9 7 -9 15 0
8 -5 15 -11 15 -5 0 -8 4 -5 9 3 5 -1 12 -9 15 -8 3 -14 10 -13 15 2 5 -12 27
-31 49 -18 22 -34 44 -34 49 -1 8 -31 44 -81 97 -22 24 -21 21 6 -14z"/>
<path d="M8440 10779 c7 -13 21 -36 32 -51 10 -15 34 -59 53 -97 20 -39 40
-71 45 -71 5 0 7 7 4 15 -4 8 -10 15 -16 15 -5 0 -6 5 -3 10 3 6 1 10 -5 10
-6 0 -8 5 -5 10 3 6 1 10 -4 10 -6 0 -10 4 -8 8 3 12 -36 82 -46 82 -4 0 -5 5
-2 10 3 6 1 10 -5 10 -6 0 -9 4 -5 9 3 6 -1 13 -9 18 -8 4 -15 12 -15 18 0 5
-5 11 -11 13 -9 3 -9 -2 0 -19z"/>
<path d="M8942 10555 c-6 -14 -8 -25 -3 -25 4 0 13 11 19 25 6 14 8 25 3 25
-4 0 -13 -11 -19 -25z"/>
<path d="M8570 10545 c0 -2 14 -34 30 -71 35 -75 110 -276 110 -293 0 -6 5
-11 11 -11 5 0 8 3 6 8 -2 4 -17 45 -31 91 -15 46 -35 102 -45 125 -10 22 -29
67 -42 98 -13 32 -27 58 -31 58 -5 0 -8 -2 -8 -5z"/>
<path d="M8922 10513 c1 -5 -6 -23 -15 -40 -10 -18 -14 -33 -10 -33 5 0 3 -4
-2 -8 -6 -4 -20 -29 -33 -57 -13 -27 -27 -58 -32 -67 -6 -11 -6 -19 1 -24 6
-3 11 -4 12 -3 1 2 22 51 45 109 24 58 46 111 49 118 3 6 0 12 -6 12 -6 0 -10
-3 -9 -7z"/>
<path d="M8819 10280 c0 -3 -2 -14 -3 -25 -2 -11 -6 -30 -10 -42 -4 -13 -3
-23 2 -23 14 0 33 73 22 84 -6 6 -10 8 -11 6z"/>
<path d="M8792 10155 c-13 -29 -46 -33 -62 -7 -9 14 -10 13 -4 -8 4 -14 9 -27
13 -30 3 -3 7 -16 8 -30 5 -46 2 -1324 -3 -1331 -4 -8 67 9 76 18 3 3 -9 2
-25 -1 l-31 -7 3 628 c2 345 6 648 10 673 4 25 7 50 8 55 0 6 3 12 6 15 8 6
22 50 16 50 -2 0 -9 -11 -15 -25z"/>
<path d="M4456 9443 c-1 -1 -60 -5 -131 -8 -72 -3 -150 -7 -175 -10 -25 -2
-81 -7 -125 -10 -44 -4 -93 -8 -110 -9 -16 -2 -64 -7 -105 -10 -41 -4 -82 -9
-91 -12 -9 -2 -45 -7 -80 -10 -35 -3 -71 -7 -79 -8 -8 -2 -40 -6 -70 -11 -30
-4 -64 -9 -75 -11 -11 -2 -40 -7 -65 -10 -25 -3 -52 -7 -60 -9 -8 -2 -35 -7
-60 -10 -24 -4 -52 -11 -61 -15 -9 -5 -19 -7 -21 -4 -3 2 -25 0 -49 -5 -24 -5
-61 -12 -83 -15 -21 -4 -42 -8 -46 -11 -4 -2 -22 -6 -41 -9 -19 -2 -52 -9 -74
-14 -22 -6 -51 -13 -65 -16 -14 -2 -47 -10 -75 -16 -27 -6 -57 -13 -65 -15 -8
-2 -53 -13 -100 -25 -47 -12 -96 -24 -110 -26 -14 -3 -34 -8 -45 -11 -11 -4
-24 -8 -30 -9 -25 -7 -229 -65 -310 -89 -49 -15 -95 -31 -101 -36 -6 -5 -13
-6 -16 -3 -4 3 -20 -2 -37 -11 -17 -8 -31 -13 -31 -11 0 4 -127 -37 -190 -61
-8 -3 -22 -8 -30 -9 -8 -2 -58 -20 -110 -39 -52 -20 -102 -38 -110 -40 -21 -5
-411 -153 -435 -165 -11 -5 -78 -32 -150 -60 -71 -28 -139 -55 -150 -60 -11
-5 -60 -25 -110 -45 -49 -20 -99 -40 -110 -45 -11 -5 -45 -19 -75 -31 -30 -11
-66 -25 -80 -31 -14 -5 -27 -9 -30 -10 -3 0 -17 -7 -32 -16 -75 -44 -517 -42
8494 -42 l8509 0 -3 22 c-2 11 -10 22 -18 24 -8 1 -32 9 -53 18 -20 9 -37 13
-37 9 0 -5 -4 -3 -8 2 -4 6 -45 26 -92 44 -94 38 -143 58 -210 87 -24 10 -47
19 -50 20 -8 1 -42 14 -75 28 -27 12 -41 18 -107 45 -208 86 -736 281 -762
281 -8 0 -18 5 -21 10 -3 6 -12 10 -20 10 -8 0 -24 4 -37 9 -13 5 -25 9 -28 9
-3 0 -18 6 -35 12 -30 12 -241 80 -260 84 -5 1 -37 10 -70 20 -33 10 -61 18
-62 17 -2 0 -21 6 -43 14 -22 8 -70 21 -107 30 -38 9 -85 23 -105 31 -21 7
-38 12 -38 10 0 -2 -24 2 -52 10 -55 15 -244 59 -288 68 -14 2 -69 14 -124 25
-113 24 -138 29 -185 37 -18 3 -43 8 -55 10 -60 12 -150 26 -243 39 -18 3 -50
8 -70 11 -36 5 -53 7 -148 19 -91 12 -113 14 -170 20 -33 3 -71 8 -85 10 -14
2 -65 7 -115 10 -504 38 -856 39 -1195 1 -30 -3 -80 -8 -110 -11 -79 -8 -264
-32 -310 -40 -14 -3 -43 -7 -65 -11 -22 -3 -53 -8 -70 -11 -16 -2 -39 -6 -50
-8 -11 -1 -47 -7 -80 -14 -33 -6 -78 -13 -100 -16 -22 -3 -46 -8 -54 -11 -8
-2 -30 -7 -50 -10 -20 -3 -76 -14 -126 -25 -49 -11 -101 -21 -115 -24 -26 -4
-145 -31 -290 -66 -47 -12 -94 -23 -104 -25 -40 -8 -364 -96 -446 -121 -47
-15 -90 -27 -96 -29 -25 -5 -284 -88 -360 -115 -44 -16 -84 -29 -88 -29 -4 0
-22 -6 -39 -14 -44 -19 -100 -40 -112 -42 -10 -2 -144 -54 -205 -80 -44 -19
-62 -27 -127 -53 -119 -48 -388 -179 -502 -244 l-43 -25 -49 28 c-82 49 -428
220 -444 220 -3 0 -28 11 -57 24 -58 26 -260 107 -323 129 -227 81 -385 135
-385 130 0 -3 -10 1 -22 9 -13 8 -34 17 -48 20 -14 3 -86 24 -160 47 -74 23
-147 43 -162 44 -14 1 -24 4 -22 7 3 2 -17 10 -43 16 -26 7 -75 19 -108 29
-33 9 -70 19 -81 21 -12 2 -66 16 -120 30 -55 14 -106 27 -114 29 -8 2 -35 8
-60 14 -54 12 -100 22 -120 25 -16 3 -31 7 -140 32 -36 9 -76 17 -90 19 -14 2
-70 13 -125 24 -55 11 -120 23 -145 27 -75 11 -84 13 -106 18 -25 5 -51 9
-199 31 -60 9 -121 18 -135 20 -14 2 -50 6 -80 10 -30 4 -66 8 -80 10 -14 2
-56 7 -95 10 -38 4 -83 8 -100 10 -129 14 -668 28 -679 18z"/>
<path d="M8597 8799 c7 -7 15 -10 18 -7 3 3 -2 9 -12 12 -14 6 -15 5 -6 -5z"/>
<path d="M8895 8800 c-3 -5 -1 -10 4 -10 6 0 11 5 11 10 0 6 -2 10 -4 10 -3 0
-8 -4 -11 -10z"/>
<path d="M8640 8780 c8 -5 22 -9 30 -9 10 0 8 3 -5 9 -27 12 -43 12 -25 0z"/>
<path d="M171 8239 c15 -23 165 -268 218 -357 14 -24 40 -66 58 -95 18 -29 39
-65 48 -81 9 -15 33 -54 53 -85 20 -31 37 -58 37 -61 0 -3 12 -23 26 -45 14
-22 43 -69 65 -105 21 -36 42 -66 47 -68 4 -2 7 -8 7 -12 0 -5 25 -49 55 -97
30 -48 58 -95 62 -103 4 -8 26 -45 50 -82 l44 -68 7775 0 c6725 0 7777 2 7790
14 8 8 14 17 14 20 0 2 30 53 67 113 36 59 102 167 146 238 44 72 103 166 130
210 27 44 58 94 67 110 10 17 92 151 183 299 92 149 164 272 162 275 -3 2 -24
-5 -48 -16 -23 -11 -82 -37 -132 -58 -49 -20 -114 -48 -143 -61 -29 -13 -55
-24 -57 -24 -2 0 -29 -11 -59 -25 -30 -14 -58 -25 -61 -25 -3 0 -30 -11 -58
-24 -29 -12 -80 -35 -113 -50 l-62 -26 -7821 0 -7821 0 -348 149 c-191 82
-358 152 -372 156 -23 7 -24 7 -9 -16z"/>
<path d="M4370 5925 l0 -1045 4395 0 4395 0 0 1045 0 1045 -4395 0 -4395 0 0
-1045z"/>
</g>
</svg>
